<svg width="20" height="20" viewBox="0 0 20 20" fill="none" xmlns="http://www.w3.org/2000/svg">
<path d="M8.57143 13.4286C8.57143 12.324 7.676 11.4286 6.57143 11.4286H1.42857C0.639592 11.4286 0 10.789 0 10V10C0 9.21102 0.639593 8.57143 1.42857 8.57143H6.57143C7.676 8.57143 8.57143 7.676 8.57143 6.57143V1.42857C8.57143 0.639592 9.21102 0 10 0V0C10.789 0 11.4286 0.639593 11.4286 1.42857V6.57143C11.4286 7.676 12.324 8.57143 13.4286 8.57143H18.5714C19.3604 8.57143 20 9.21102 20 10V10C20 10.789 19.3604 11.4286 18.5714 11.4286H13.4286C12.324 11.4286 11.4286 12.324 11.4286 13.4286V18.5714C11.4286 19.3604 10.789 20 10 20V20C9.21102 20 8.57143 19.3604 8.57143 18.5714V13.4286Z" fill="#014100"/>
</svg>
