<svg width="38" height="42" viewBox="0 0 38 42" fill="none" xmlns="http://www.w3.org/2000/svg">
<path d="M4.41667 41.8332C3.27083 41.8332 2.28993 41.4252 1.47396 40.6092C0.657986 39.7932 0.25 38.8123 0.25 37.6665V8.49984C0.25 7.354 0.657986 6.3731 1.47396 5.55713C2.28993 4.74116 3.27083 4.33317 4.41667 4.33317H6.5V0.166504H10.6667V4.33317H27.3333V0.166504H31.5V4.33317H33.5833C34.7292 4.33317 35.7101 4.74116 36.526 5.55713C37.342 6.3731 37.75 7.354 37.75 8.49984V37.6665C37.75 38.8123 37.342 39.7932 36.526 40.6092C35.7101 41.4252 34.7292 41.8332 33.5833 41.8332H4.41667ZM4.41667 37.6665H33.5833V16.8332H4.41667V37.6665ZM4.41667 12.6665H33.5833V8.49984H4.41667V12.6665ZM19 25.1665C18.4097 25.1665 17.9149 24.9669 17.5156 24.5675C17.1163 24.1682 16.9167 23.6734 16.9167 23.0832C16.9167 22.4929 17.1163 21.9981 17.5156 21.5988C17.9149 21.1995 18.4097 20.9998 19 20.9998C19.5903 20.9998 20.0851 21.1995 20.4844 21.5988C20.8837 21.9981 21.0833 22.4929 21.0833 23.0832C21.0833 23.6734 20.8837 24.1682 20.4844 24.5675C20.0851 24.9669 19.5903 25.1665 19 25.1665ZM10.6667 25.1665C10.0764 25.1665 9.5816 24.9669 9.18229 24.5675C8.78299 24.1682 8.58333 23.6734 8.58333 23.0832C8.58333 22.4929 8.78299 21.9981 9.18229 21.5988C9.5816 21.1995 10.0764 20.9998 10.6667 20.9998C11.2569 20.9998 11.7517 21.1995 12.151 21.5988C12.5503 21.9981 12.75 22.4929 12.75 23.0832C12.75 23.6734 12.5503 24.1682 12.151 24.5675C11.7517 24.9669 11.2569 25.1665 10.6667 25.1665ZM27.3333 25.1665C26.7431 25.1665 26.2483 24.9669 25.849 24.5675C25.4497 24.1682 25.25 23.6734 25.25 23.0832C25.25 22.4929 25.4497 21.9981 25.849 21.5988C26.2483 21.1995 26.7431 20.9998 27.3333 20.9998C27.9236 20.9998 28.4184 21.1995 28.8177 21.5988C29.217 21.9981 29.4167 22.4929 29.4167 23.0832C29.4167 23.6734 29.217 24.1682 28.8177 24.5675C28.4184 24.9669 27.9236 25.1665 27.3333 25.1665ZM19 33.4998C18.4097 33.4998 17.9149 33.3002 17.5156 32.9009C17.1163 32.5016 16.9167 32.0068 16.9167 31.4165C16.9167 30.8262 17.1163 30.3314 17.5156 29.9321C17.9149 29.5328 18.4097 29.3332 19 29.3332C19.5903 29.3332 20.0851 29.5328 20.4844 29.9321C20.8837 30.3314 21.0833 30.8262 21.0833 31.4165C21.0833 32.0068 20.8837 32.5016 20.4844 32.9009C20.0851 33.3002 19.5903 33.4998 19 33.4998ZM10.6667 33.4998C10.0764 33.4998 9.5816 33.3002 9.18229 32.9009C8.78299 32.5016 8.58333 32.0068 8.58333 31.4165C8.58333 30.8262 8.78299 30.3314 9.18229 29.9321C9.5816 29.5328 10.0764 29.3332 10.6667 29.3332C11.2569 29.3332 11.7517 29.5328 12.151 29.9321C12.5503 30.3314 12.75 30.8262 12.75 31.4165C12.75 32.0068 12.5503 32.5016 12.151 32.9009C11.7517 33.3002 11.2569 33.4998 10.6667 33.4998ZM27.3333 33.4998C26.7431 33.4998 26.2483 33.3002 25.849 32.9009C25.4497 32.5016 25.25 32.0068 25.25 31.4165C25.25 30.8262 25.4497 30.3314 25.849 29.9321C26.2483 29.5328 26.7431 29.3332 27.3333 29.3332C27.9236 29.3332 28.4184 29.5328 28.8177 29.9321C29.217 30.3314 29.4167 30.8262 29.4167 31.4165C29.4167 32.0068 29.217 32.5016 28.8177 32.9009C28.4184 33.3002 27.9236 33.4998 27.3333 33.4998Z" fill="#014100"/>
</svg>
