<svg width="40" height="40" viewBox="0 0 40 40" fill="none" xmlns="http://www.w3.org/2000/svg">
<path d="M19.9549 12.6999L12.7001 20.0448L20.045 27.2996L22.132 25.1867L18.4093 21.5096L27.5091 21.4534L27.4906 18.4535L18.3908 18.5096L22.0679 14.7869L19.9549 12.6999ZM19.8766 0.000127859C22.6099 -0.0167355 25.1964 0.492314 27.6362 1.52728C30.0759 2.56225 32.2097 3.98245 34.0376 5.78787C35.8654 7.59329 37.3118 9.70941 38.3768 12.1362C39.4418 14.563 39.9827 17.1431 39.9996 19.8764C40.0167 22.643 39.5077 25.2462 38.4727 27.6859C37.4378 30.1257 36.0175 32.2512 34.212 34.0623C32.4065 35.8735 30.2903 37.3116 27.8635 38.3766C25.4367 39.4416 22.8566 39.9825 20.1234 39.9994C17.3568 40.0164 14.7536 39.5075 12.3138 38.4725C9.87403 37.4376 7.74861 36.0256 5.93754 34.2368C4.12647 32.4479 2.68844 30.3401 1.62345 27.9133C0.558453 25.4865 0.0174247 22.8898 0.000355653 20.1231C-0.0165077 17.3899 0.492542 14.8033 1.52751 12.3636C2.56248 9.9238 3.97434 7.79005 5.7631 5.96232C7.55186 4.13458 9.65964 2.68821 12.0864 1.62322C14.5133 0.558225 17.11 0.0171969 19.8766 0.000127859ZM19.8951 3.00007C15.1618 3.02927 11.1555 4.71236 7.87602 8.04932C4.59654 11.3863 2.9713 15.4047 3.0003 20.1046C3.0295 24.8379 4.70425 28.8443 8.02455 32.1239C11.3448 35.4034 15.3716 37.0286 20.1049 36.9994C24.8048 36.9704 28.8028 35.2957 32.0991 31.9753C35.3953 28.6549 37.0289 24.6281 36.9997 19.8949C36.9707 15.195 35.2876 11.1969 31.9506 7.90079C28.6135 4.60465 24.595 2.97107 19.8951 3.00007Z" fill="#014100"/>
</svg>
