<svg width="427" height="185" viewBox="0 0 427 185" fill="none" xmlns="http://www.w3.org/2000/svg">
<path d="M304 184C414.4 179.2 440 49.3333 420 0H0V130C32 97.3333 193.6 188.8 304 184Z" fill="#014100" stroke="black"/>
<path d="M101.084 38.1348C100.627 38.1348 100.258 38.5391 99.9766 39.3477C99.6953 40.1562 99.4492 41.1758 99.2383 42.4062C99.0625 43.6367 98.9219 45.0078 98.8164 46.5195C98.7461 47.9961 98.6934 49.4199 98.6582 50.791C98.6582 52.1621 98.6582 53.3926 98.6582 54.4824C98.6582 55.5371 98.6582 56.2578 98.6582 56.6445C98.6582 58.7188 98.6406 60.793 98.6055 62.8672C98.5703 64.9062 98.5527 66.9805 98.5527 69.0898C98.5527 69.3711 98.5527 69.916 98.5527 70.7246C98.5527 71.498 98.5703 72.3242 98.6055 73.2031C98.6406 74.082 98.7109 74.8906 98.8164 75.6289C98.957 76.3672 99.1328 76.8242 99.3438 77H90.0625C89.6055 76.4727 89.166 75.9277 88.7441 75.3652C88.3574 74.7676 87.9531 74.1875 87.5312 73.625L83.5234 68.2461C81.2734 65.2227 79.0059 62.2168 76.7207 59.2285C74.4355 56.2402 72.0801 53.2871 69.6543 50.3691C69.5137 51.5293 69.4258 52.707 69.3906 53.9023C69.3555 55.0625 69.3203 56.2227 69.2852 57.3828C69.2148 59.1758 69.1621 60.9688 69.127 62.7617C69.0918 64.5547 69.0742 66.3477 69.0742 68.1406C69.0742 68.4219 69.0742 69.0195 69.0742 69.9336C69.0742 70.8125 69.0918 71.7441 69.127 72.7285C69.1621 73.7129 69.2148 74.627 69.2852 75.4707C69.3906 76.3145 69.5312 76.8242 69.707 77H60.4785C60.6895 76.7891 60.8652 76.1211 61.0059 74.9961C61.1465 73.8359 61.252 72.4473 61.3223 70.8301C61.3926 69.2129 61.4453 67.4727 61.4805 65.6094C61.5156 63.7109 61.5332 61.9004 61.5332 60.1777C61.5332 58.4551 61.5156 56.9258 61.4805 55.5898C61.4805 54.2539 61.4805 53.3223 61.4805 52.7949C61.4805 52.4785 61.4805 51.916 61.4805 51.1074C61.5156 50.2988 61.5156 49.3672 61.4805 48.3125C61.4805 47.2578 61.4453 46.1504 61.375 44.9902C61.3398 43.8301 61.252 42.7578 61.1113 41.7734C60.9707 40.7891 60.7773 39.9629 60.5312 39.2949C60.2852 38.627 59.9863 38.2402 59.6348 38.1348H72.3965C72.291 38.1699 72.2383 38.3105 72.2383 38.5566C72.2383 39.1543 72.625 40.1914 73.3984 41.668C74.207 43.1445 75.2266 44.8496 76.457 46.7832C77.7227 48.6816 79.0938 50.7031 80.5703 52.8477C82.082 54.9922 83.5234 57.0312 84.8945 58.9648C86.3008 60.8984 87.5488 62.6211 88.6387 64.1328C89.7637 65.6094 90.5723 66.6641 91.0645 67.2969C91.1348 64.8711 91.1523 62.4629 91.1172 60.0723C91.1172 57.6465 91.1172 55.2207 91.1172 52.7949C91.1172 52.4785 91.1172 51.916 91.1172 51.1074C91.1523 50.2988 91.1523 49.3672 91.1172 48.3125C91.1172 47.2578 91.082 46.1504 91.0117 44.9902C90.9766 43.8301 90.8887 42.7578 90.748 41.7734C90.6074 40.7891 90.4141 39.9629 90.168 39.2949C89.9219 38.627 89.623 38.2402 89.2715 38.1348H101.084ZM136.732 51.3184C136.592 51.5645 136.451 52.0918 136.311 52.9004C136.205 53.709 136.1 54.6758 135.994 55.8008C135.889 56.8906 135.801 58.0859 135.73 59.3867C135.66 60.6875 135.59 61.9355 135.52 63.1309C135.484 64.291 135.449 65.3457 135.414 66.2949C135.414 67.209 135.414 67.877 135.414 68.2988C135.414 68.6504 135.414 69.2832 135.414 70.1973C135.414 71.0762 135.449 71.9902 135.52 72.9395C135.625 73.8887 135.748 74.75 135.889 75.5234C136.064 76.2969 136.311 76.7539 136.627 76.8945L127.346 76.8418L127.557 74.3105C126.221 75.2598 124.762 76.0508 123.18 76.6836C121.598 77.2812 119.98 77.5801 118.328 77.5801C116.676 77.5801 115.076 77.3867 113.529 77C112.018 76.5781 110.682 75.9453 109.521 75.1016C108.361 74.2578 107.43 73.1855 106.727 71.8848C106.023 70.5488 105.672 68.9492 105.672 67.0859C105.672 64.7305 105.777 62.3926 105.988 60.0723C106.234 57.752 106.357 55.4141 106.357 53.0586C106.357 52.6719 106.34 52.2852 106.305 51.8984C106.305 51.5117 106.27 51.125 106.199 50.7383H115.111C114.76 51.3359 114.496 52.2852 114.32 53.5859C114.145 54.8867 114.004 56.2754 113.898 57.752C113.828 59.2285 113.775 60.6699 113.74 62.0762C113.74 63.4473 113.74 64.5195 113.74 65.293C113.74 66.6289 113.846 67.7363 114.057 68.6152C114.268 69.4941 114.619 70.1973 115.111 70.7246C115.639 71.252 116.342 71.6211 117.221 71.832C118.1 72.043 119.207 72.1484 120.543 72.1484C121.281 72.1484 121.984 72.0254 122.652 71.7793C123.355 71.498 124.023 71.1465 124.656 70.7246C125.289 70.3027 125.869 69.8281 126.396 69.3008C126.924 68.7734 127.398 68.2461 127.82 67.7188C127.891 66.1719 127.943 64.6426 127.979 63.1309C128.014 61.6191 128.031 60.0898 128.031 58.543C128.031 58.2266 128.031 57.7168 128.031 57.0137C128.031 56.2754 128.014 55.5195 127.979 54.7461C127.943 53.9727 127.873 53.2695 127.768 52.6367C127.697 51.9688 127.592 51.5293 127.451 51.3184H136.732ZM153.977 57.9629C153.906 59.7559 153.836 61.5664 153.766 63.3945C153.695 65.1875 153.66 66.9805 153.66 68.7734C153.66 69.3711 153.783 69.8809 154.029 70.3027C154.275 70.7246 154.592 71.0762 154.979 71.3574C155.4 71.6035 155.857 71.7793 156.35 71.8848C156.877 71.9902 157.404 72.043 157.932 72.043C158.6 72.043 159.25 71.9902 159.883 71.8848C160.551 71.7793 161.201 71.6387 161.834 71.4629L160.99 77.1055C158.951 77.1055 157.035 77.0527 155.242 76.9473C153.449 76.8066 151.885 76.4199 150.549 75.7871C149.213 75.1543 148.158 74.1523 147.385 72.7812C146.611 71.375 146.225 69.4062 146.225 66.875C146.225 65.3984 146.26 63.9219 146.33 62.4453C146.436 60.9336 146.559 59.4395 146.699 57.9629L138.895 58.0156L139.264 52.8477C140.529 52.9531 141.812 53.0234 143.113 53.0586C144.414 53.0586 145.715 53.0586 147.016 53.0586C147.086 52.0391 147.139 51.0547 147.174 50.1055C147.209 49.1211 147.227 48.1191 147.227 47.0996C147.227 46.8887 147.227 46.4668 147.227 45.834C147.227 45.2012 147.191 44.5508 147.121 43.8828C147.051 43.1797 146.945 42.5469 146.805 41.9844C146.664 41.4219 146.471 41.0879 146.225 40.9824L155.928 41.1406C155.787 41.1406 155.682 41.2461 155.611 41.457C155.541 41.668 155.471 41.8262 155.4 41.9316C155.189 42.5996 155.014 43.4082 154.873 44.3574C154.768 45.3066 154.662 46.3086 154.557 47.3633C154.486 48.3828 154.416 49.3848 154.346 50.3691C154.311 51.3184 154.275 52.1621 154.24 52.9004C155.436 52.8301 156.648 52.7773 157.879 52.7422C159.109 52.6719 160.322 52.4961 161.518 52.2148V57.9102L153.977 57.9629ZM174.227 56.9609C175.07 56.2578 176.037 55.5898 177.127 54.957C178.252 54.3242 179.412 53.7793 180.607 53.3223C181.838 52.8301 183.068 52.4434 184.299 52.1621C185.564 51.8809 186.742 51.7402 187.832 51.7402V56.2754C186.707 56.2754 185.459 56.5215 184.088 57.0137C182.717 57.5059 181.363 58.1387 180.027 58.9121C178.727 59.6855 177.549 60.5645 176.494 61.5488C175.439 62.5332 174.666 63.5352 174.174 64.5547C174.174 64.8008 174.174 65.2578 174.174 65.9258C174.209 66.5938 174.227 67.3672 174.227 68.2461C174.262 69.125 174.297 70.0566 174.332 71.041C174.367 71.9902 174.42 72.8867 174.49 73.7305C174.561 74.5742 174.631 75.2949 174.701 75.8926C174.771 76.4902 174.859 76.8594 174.965 77H166.422C166.562 76.9297 166.686 76.5605 166.791 75.8926C166.896 75.1895 166.967 74.3457 167.002 73.3613C167.072 72.377 167.125 71.3223 167.16 70.1973C167.23 69.0371 167.266 67.9297 167.266 66.875C167.301 65.8203 167.318 64.9062 167.318 64.1328C167.318 63.3594 167.318 62.8496 167.318 62.6035C167.318 62.2871 167.318 61.6191 167.318 60.5996C167.318 59.5801 167.301 58.5078 167.266 57.3828C167.23 56.2578 167.178 55.2207 167.107 54.2715C167.037 53.2871 166.932 52.6895 166.791 52.4785H174.596C174.525 52.6895 174.473 53.0059 174.438 53.4277C174.402 53.8145 174.367 54.2363 174.332 54.6934C174.297 55.1504 174.262 55.5898 174.227 56.0117C174.227 56.4336 174.227 56.75 174.227 56.9609ZM190.574 52.3203L199.855 52.373C199.68 52.4082 199.539 52.5664 199.434 52.8477C199.363 53.0938 199.293 53.2871 199.223 53.4277C198.977 54.3066 198.783 55.3789 198.643 56.6445C198.537 57.875 198.449 59.1758 198.379 60.5469C198.344 61.8828 198.309 63.1836 198.273 64.4492C198.273 65.7148 198.273 66.8223 198.273 67.7715C198.273 68.0879 198.273 68.7383 198.273 69.7227C198.273 70.6719 198.291 71.6914 198.326 72.7812C198.396 73.8711 198.484 74.873 198.59 75.7871C198.695 76.666 198.854 77.2109 199.064 77.4219H189.73C189.906 77.1758 190.082 76.5957 190.258 75.6816C190.434 74.7676 190.574 73.6777 190.68 72.4121C190.82 71.1465 190.943 69.793 191.049 68.3516C191.154 66.875 191.242 65.4863 191.312 64.1855C191.418 62.8496 191.488 61.6719 191.523 60.6523C191.559 59.5977 191.576 58.877 191.576 58.4902C191.576 58.2793 191.576 57.8574 191.576 57.2246C191.576 56.5918 191.541 55.9414 191.471 55.2734C191.4 54.5703 191.295 53.9375 191.154 53.375C191.014 52.7773 190.82 52.4258 190.574 52.3203ZM195.162 39.5586C195.619 39.5586 196.129 39.6289 196.691 39.7695C197.254 39.9102 197.764 40.1211 198.221 40.4023C198.713 40.6484 199.117 41 199.434 41.457C199.75 41.8789 199.908 42.3711 199.908 42.9336C199.908 43.4961 199.75 43.9883 199.434 44.4102C199.117 44.832 198.713 45.1836 198.221 45.4648C197.764 45.7109 197.254 45.9043 196.691 46.0449C196.129 46.1855 195.619 46.2559 195.162 46.2559C194.67 46.2559 194.143 46.1855 193.58 46.0449C193.053 45.9043 192.543 45.7109 192.051 45.4648C191.594 45.1836 191.207 44.832 190.891 44.4102C190.574 43.9883 190.416 43.4961 190.416 42.9336C190.416 42.3711 190.574 41.8789 190.891 41.457C191.207 41 191.594 40.6484 192.051 40.4023C192.543 40.1211 193.053 39.9102 193.58 39.7695C194.143 39.6289 194.67 39.5586 195.162 39.5586ZM240.355 43.5664C240.215 43.4961 239.74 43.4434 238.932 43.4082C238.158 43.373 237.209 43.3555 236.084 43.3555C234.994 43.3203 233.799 43.3027 232.498 43.3027C231.232 43.2676 230.02 43.25 228.859 43.25C227.734 43.25 226.732 43.25 225.854 43.25C225.01 43.25 224.447 43.25 224.166 43.25C223.885 45.8867 223.727 48.5234 223.691 51.1602C223.691 53.7969 223.691 56.4336 223.691 59.0703C223.691 60.7578 223.674 62.4277 223.639 64.0801C223.604 65.7324 223.586 67.4023 223.586 69.0898C223.586 69.3711 223.586 69.916 223.586 70.7246C223.586 71.498 223.604 72.3242 223.639 73.2031C223.674 74.082 223.744 74.8906 223.85 75.6289C223.99 76.3672 224.166 76.8242 224.377 77H215.148C215.395 76.7891 215.57 76.1211 215.676 74.9961C215.816 73.8359 215.922 72.4473 215.992 70.8301C216.098 69.2129 216.15 67.4551 216.15 65.5566C216.186 63.6582 216.203 61.8477 216.203 60.125C216.203 58.4023 216.186 56.8906 216.15 55.5898C216.15 54.2539 216.15 53.3223 216.15 52.7949C216.15 51.2129 216.133 49.6309 216.098 48.0488C216.098 46.4668 216.045 44.8848 215.939 43.3027C213.654 43.3027 211.387 43.3203 209.137 43.3555C206.887 43.3555 204.619 43.373 202.334 43.4082C201.982 43.4082 201.543 43.4258 201.016 43.4609C200.453 43.4609 199.873 43.4609 199.275 43.4609C198.678 43.4609 198.115 43.4785 197.588 43.5137C197.025 43.5488 196.586 43.6016 196.27 43.6719L196.111 38.1875L240.408 37.9238L240.355 43.5664ZM244.416 56.9609C245.26 56.2578 246.227 55.5898 247.316 54.957C248.441 54.3242 249.602 53.7793 250.797 53.3223C252.027 52.8301 253.258 52.4434 254.488 52.1621C255.754 51.8809 256.932 51.7402 258.021 51.7402V56.2754C256.896 56.2754 255.648 56.5215 254.277 57.0137C252.906 57.5059 251.553 58.1387 250.217 58.9121C248.916 59.6855 247.738 60.5645 246.684 61.5488C245.629 62.5332 244.855 63.5352 244.363 64.5547C244.363 64.8008 244.363 65.2578 244.363 65.9258C244.398 66.5938 244.416 67.3672 244.416 68.2461C244.451 69.125 244.486 70.0566 244.521 71.041C244.557 71.9902 244.609 72.8867 244.68 73.7305C244.75 74.5742 244.82 75.2949 244.891 75.8926C244.961 76.4902 245.049 76.8594 245.154 77H236.611C236.752 76.9297 236.875 76.5605 236.98 75.8926C237.086 75.1895 237.156 74.3457 237.191 73.3613C237.262 72.377 237.314 71.3223 237.35 70.1973C237.42 69.0371 237.455 67.9297 237.455 66.875C237.49 65.8203 237.508 64.9062 237.508 64.1328C237.508 63.3594 237.508 62.8496 237.508 62.6035C237.508 62.2871 237.508 61.6191 237.508 60.5996C237.508 59.5801 237.49 58.5078 237.455 57.3828C237.42 56.2578 237.367 55.2207 237.297 54.2715C237.227 53.2871 237.121 52.6895 236.98 52.4785H244.785C244.715 52.6895 244.662 53.0059 244.627 53.4277C244.592 53.8145 244.557 54.2363 244.521 54.6934C244.486 55.1504 244.451 55.5898 244.416 56.0117C244.416 56.4336 244.416 56.75 244.416 56.9609ZM279.273 77.6328C279.871 77.457 280.24 77.0703 280.381 76.4727C280.521 75.8398 280.609 75.2773 280.645 74.7852C279.062 75.2773 277.463 75.6465 275.846 75.8926C274.229 76.1387 272.611 76.2617 270.994 76.2617C269.939 76.2617 268.674 76.1738 267.197 75.998C265.756 75.8223 264.367 75.4883 263.031 74.9961C261.73 74.5039 260.605 73.8184 259.656 72.9395C258.742 72.0605 258.285 70.9004 258.285 69.459C258.285 68.2285 258.725 67.1738 259.604 66.2949C260.518 65.416 261.678 64.6953 263.084 64.1328C264.49 63.5352 266.072 63.0781 267.83 62.7617C269.588 62.4453 271.311 62.1992 272.998 62.0234C274.686 61.8477 276.268 61.7422 277.744 61.707C279.221 61.6719 280.381 61.6367 281.225 61.6016C281.225 61.1094 281.225 60.6348 281.225 60.1777C281.26 59.7207 281.277 59.2461 281.277 58.7539C281.277 57.875 281.119 57.1191 280.803 56.4863C280.486 55.8184 280.047 55.2734 279.484 54.8516C278.957 54.4297 278.324 54.1309 277.586 53.9551C276.848 53.7441 276.074 53.6387 275.266 53.6387C274.492 53.6387 273.648 53.7441 272.734 53.9551C271.855 54.166 271.012 54.4824 270.203 54.9043C269.395 55.3262 268.691 55.8711 268.094 56.5391C267.496 57.1719 267.127 57.9102 266.986 58.7539L260.342 57.8574C260.975 56.2402 261.854 54.8691 262.979 53.7441C264.104 52.6191 265.369 51.7051 266.775 51.002C268.217 50.2988 269.746 49.7891 271.363 49.4727C272.98 49.1211 274.598 48.9453 276.215 48.9453C277.762 48.9453 279.256 49.1387 280.697 49.5254C282.174 49.9121 283.475 50.5098 284.6 51.3184C285.76 52.0918 286.674 53.0938 287.342 54.3242C288.045 55.5547 288.396 57.0137 288.396 58.7012C288.396 60.4941 288.361 62.2871 288.291 64.0801C288.256 65.8379 288.238 67.6133 288.238 69.4062C288.238 69.7227 288.238 70.3027 288.238 71.1465C288.238 71.9551 288.256 72.8164 288.291 73.7305C288.361 74.6094 288.449 75.4355 288.555 76.209C288.66 76.9473 288.818 77.4219 289.029 77.6328H279.273ZM265.457 69.459C265.457 69.9863 265.738 70.3906 266.301 70.6719C266.863 70.9531 267.514 71.1816 268.252 71.3574C269.025 71.498 269.781 71.5859 270.52 71.6211C271.258 71.6562 271.785 71.6738 272.102 71.6738C273.578 71.6738 275.072 71.5684 276.584 71.3574C278.096 71.1465 279.555 70.8125 280.961 70.3555C280.996 69.7227 281.014 69.0898 281.014 68.457C281.049 67.8242 281.066 67.209 281.066 66.6113L279.695 66.5586C279.379 66.5586 278.799 66.5762 277.955 66.6113C277.146 66.6113 276.215 66.6465 275.16 66.7168C274.105 66.752 272.998 66.8398 271.838 66.9805C270.713 67.0859 269.676 67.2441 268.727 67.4551C267.777 67.666 266.986 67.9473 266.354 68.2988C265.756 68.6152 265.457 69.002 265.457 69.459ZM314.447 62.0762C314.904 61.584 315.361 61.0039 315.818 60.3359C316.275 59.668 316.504 59 316.504 58.332C316.504 57.6992 316.275 57.1895 315.818 56.8027C315.361 56.3809 314.816 56.0645 314.184 55.8535C313.551 55.6426 312.883 55.502 312.18 55.4316C311.512 55.3262 310.949 55.2734 310.492 55.2734C309.051 55.2734 307.697 55.5371 306.432 56.0645C305.166 56.5566 304.059 57.2598 303.109 58.1738C302.16 59.0527 301.404 60.1074 300.842 61.3379C300.314 62.5684 300.051 63.9219 300.051 65.3984C300.051 66.7695 300.332 67.8594 300.895 68.668C301.492 69.4766 302.23 70.0918 303.109 70.5137C304.023 70.9004 305.043 71.1465 306.168 71.252C307.293 71.3574 308.418 71.4102 309.543 71.4102C311.266 71.4102 313.059 71.2695 314.922 70.9883C316.785 70.707 318.543 70.3203 320.195 69.8281L321.619 74.5215C319.932 75.1543 318.051 75.6289 315.977 75.9453C313.902 76.2266 311.951 76.3672 310.123 76.3672C309.033 76.3672 307.838 76.3145 306.537 76.209C305.271 76.0684 303.988 75.8574 302.688 75.5762C301.387 75.2598 300.121 74.8555 298.891 74.3633C297.695 73.8711 296.623 73.2383 295.674 72.4648C294.725 71.6914 293.969 70.7773 293.406 69.7227C292.844 68.6328 292.562 67.3848 292.562 65.9785C292.562 63.4121 293.178 61.1621 294.408 59.2285C295.674 57.2598 297.273 55.625 299.207 54.3242C301.176 52.9883 303.338 51.9863 305.693 51.3184C308.084 50.6504 310.422 50.3164 312.707 50.3164C313.973 50.3164 315.238 50.4219 316.504 50.6328C317.77 50.8086 318.912 51.1602 319.932 51.6875C320.951 52.2148 321.777 52.9531 322.41 53.9023C323.043 54.8516 323.359 56.082 323.359 57.5938C323.359 58.3672 323.289 59.123 323.148 59.8613C323.008 60.5996 322.832 61.3379 322.621 62.0762H314.447ZM343.029 63.6055C344.928 65.2578 346.826 66.8926 348.725 68.5098C350.658 70.0918 352.592 71.6914 354.525 73.3086C355.369 74.0117 356.23 74.75 357.109 75.5234C357.988 76.2969 358.92 76.9297 359.904 77.4219H350.359C350.254 77.2461 349.92 76.9121 349.357 76.4199C348.795 75.8926 348.109 75.3125 347.301 74.6797C346.527 74.0469 345.684 73.3613 344.77 72.623C343.855 71.8848 342.977 71.1816 342.133 70.5137C341.289 69.8457 340.516 69.2656 339.812 68.7734C339.145 68.2461 338.652 67.8594 338.336 67.6133L336.438 69.248C336.438 69.6348 336.438 70.2324 336.438 71.041C336.438 71.8145 336.455 72.623 336.49 73.4668C336.525 74.3105 336.578 75.1016 336.648 75.8398C336.754 76.5781 336.877 77.0703 337.018 77.3164H327.684C327.824 77.0703 327.965 76.5078 328.105 75.6289C328.246 74.75 328.369 73.6602 328.475 72.3594C328.58 71.0586 328.668 69.6172 328.738 68.0352C328.844 66.418 328.932 64.7656 329.002 63.0781C329.107 61.3906 329.178 59.7207 329.213 58.0684C329.283 56.3809 329.336 54.834 329.371 53.4277C329.441 51.9863 329.477 50.7207 329.477 49.6309C329.512 48.541 329.529 47.7324 329.529 47.2051C329.529 46.8535 329.529 46.2383 329.529 45.3594C329.529 44.4453 329.494 43.5137 329.424 42.5645C329.354 41.5801 329.248 40.6836 329.107 39.875C328.967 39.0664 328.773 38.5742 328.527 38.3984L338.6 38.4512C338.318 38.627 338.072 39.2422 337.861 40.2969C337.65 41.3516 337.457 42.6523 337.281 44.1992C337.141 45.7109 337.018 47.3809 336.912 49.209C336.807 51.002 336.719 52.7246 336.648 54.377C336.613 56.0293 336.578 57.5059 336.543 58.8066C336.508 60.1074 336.49 61.0039 336.49 61.4961C338.564 59.7734 340.656 58.0684 342.766 56.3809C344.91 54.6934 346.967 52.918 348.936 51.0547H358.164C357.25 51.5469 356.389 52.1621 355.58 52.9004C354.807 53.6387 354.016 54.3242 353.207 54.957C351.484 56.4336 349.779 57.875 348.092 59.2812C346.404 60.6875 344.717 62.1289 343.029 63.6055Z" fill="#6AD459"/>
</svg>
