<svg width="268" height="36" viewBox="0 0 268 36" fill="none" xmlns="http://www.w3.org/2000/svg">
<path d="M37.2969 0.453125C36.8906 0.453125 36.5625 0.8125 36.3125 1.53125C36.0625 2.25 35.8438 3.15625 35.6562 4.25C35.5 5.34375 35.375 6.5625 35.2812 7.90625C35.2188 9.21875 35.1719 10.4844 35.1406 11.7031C35.1406 12.9219 35.1406 14.0156 35.1406 14.9844C35.1406 15.9219 35.1406 16.5625 35.1406 16.9062C35.1406 18.75 35.125 20.5938 35.0938 22.4375C35.0625 24.25 35.0469 26.0938 35.0469 27.9688C35.0469 28.2188 35.0469 28.7031 35.0469 29.4219C35.0469 30.1094 35.0625 30.8438 35.0938 31.625C35.125 32.4062 35.1875 33.125 35.2812 33.7812C35.4062 34.4375 35.5625 34.8438 35.75 35H27.5C27.0938 34.5312 26.7031 34.0469 26.3281 33.5469C25.9844 33.0156 25.625 32.5 25.25 32L21.6875 27.2188C19.6875 24.5312 17.6719 21.8594 15.6406 19.2031C13.6094 16.5469 11.5156 13.9219 9.35938 11.3281C9.23438 12.3594 9.15625 13.4062 9.125 14.4688C9.09375 15.5 9.0625 16.5312 9.03125 17.5625C8.96875 19.1562 8.92188 20.75 8.89062 22.3438C8.85938 23.9375 8.84375 25.5312 8.84375 27.125C8.84375 27.375 8.84375 27.9062 8.84375 28.7188C8.84375 29.5 8.85938 30.3281 8.89062 31.2031C8.92188 32.0781 8.96875 32.8906 9.03125 33.6406C9.125 34.3906 9.25 34.8438 9.40625 35H1.20312C1.39062 34.8125 1.54688 34.2188 1.67188 33.2188C1.79688 32.1875 1.89062 30.9531 1.95312 29.5156C2.01562 28.0781 2.0625 26.5312 2.09375 24.875C2.125 23.1875 2.14062 21.5781 2.14062 20.0469C2.14062 18.5156 2.125 17.1562 2.09375 15.9688C2.09375 14.7812 2.09375 13.9531 2.09375 13.4844C2.09375 13.2031 2.09375 12.7031 2.09375 11.9844C2.125 11.2656 2.125 10.4375 2.09375 9.5C2.09375 8.5625 2.0625 7.57812 2 6.54688C1.96875 5.51562 1.89062 4.5625 1.76562 3.6875C1.64062 2.8125 1.46875 2.07812 1.25 1.48438C1.03125 0.890625 0.765625 0.546875 0.453125 0.453125H11.7969C11.7031 0.484375 11.6562 0.609375 11.6562 0.828125C11.6562 1.35938 12 2.28125 12.6875 3.59375C13.4062 4.90625 14.3125 6.42188 15.4062 8.14062C16.5312 9.82812 17.75 11.625 19.0625 13.5312C20.4062 15.4375 21.6875 17.25 22.9062 18.9688C24.1562 20.6875 25.2656 22.2188 26.2344 23.5625C27.2344 24.875 27.9531 25.8125 28.3906 26.375C28.4531 24.2188 28.4688 22.0781 28.4375 19.9531C28.4375 17.7969 28.4375 15.6406 28.4375 13.4844C28.4375 13.2031 28.4375 12.7031 28.4375 11.9844C28.4688 11.2656 28.4688 10.4375 28.4375 9.5C28.4375 8.5625 28.4062 7.57812 28.3438 6.54688C28.3125 5.51562 28.2344 4.5625 28.1094 3.6875C27.9844 2.8125 27.8125 2.07812 27.5938 1.48438C27.375 0.890625 27.1094 0.546875 26.7969 0.453125H37.2969ZM68.9844 12.1719C68.8594 12.3906 68.7344 12.8594 68.6094 13.5781C68.5156 14.2969 68.4219 15.1562 68.3281 16.1562C68.2344 17.125 68.1562 18.1875 68.0938 19.3438C68.0312 20.5 67.9688 21.6094 67.9062 22.6719C67.875 23.7031 67.8438 24.6406 67.8125 25.4844C67.8125 26.2969 67.8125 26.8906 67.8125 27.2656C67.8125 27.5781 67.8125 28.1406 67.8125 28.9531C67.8125 29.7344 67.8438 30.5469 67.9062 31.3906C68 32.2344 68.1094 33 68.2344 33.6875C68.3906 34.375 68.6094 34.7812 68.8906 34.9062L60.6406 34.8594L60.8281 32.6094C59.6406 33.4531 58.3438 34.1562 56.9375 34.7188C55.5312 35.25 54.0938 35.5156 52.625 35.5156C51.1562 35.5156 49.7344 35.3438 48.3594 35C47.0156 34.625 45.8281 34.0625 44.7969 33.3125C43.7656 32.5625 42.9375 31.6094 42.3125 30.4531C41.6875 29.2656 41.375 27.8438 41.375 26.1875C41.375 24.0938 41.4688 22.0156 41.6562 19.9531C41.875 17.8906 41.9844 15.8125 41.9844 13.7188C41.9844 13.375 41.9688 13.0312 41.9375 12.6875C41.9375 12.3438 41.9062 12 41.8438 11.6562H49.7656C49.4531 12.1875 49.2188 13.0312 49.0625 14.1875C48.9062 15.3438 48.7812 16.5781 48.6875 17.8906C48.625 19.2031 48.5781 20.4844 48.5469 21.7344C48.5469 22.9531 48.5469 23.9062 48.5469 24.5938C48.5469 25.7812 48.6406 26.7656 48.8281 27.5469C49.0156 28.3281 49.3281 28.9531 49.7656 29.4219C50.2344 29.8906 50.8594 30.2188 51.6406 30.4062C52.4219 30.5938 53.4062 30.6875 54.5938 30.6875C55.25 30.6875 55.875 30.5781 56.4688 30.3594C57.0938 30.1094 57.6875 29.7969 58.25 29.4219C58.8125 29.0469 59.3281 28.625 59.7969 28.1562C60.2656 27.6875 60.6875 27.2188 61.0625 26.75C61.125 25.375 61.1719 24.0156 61.2031 22.6719C61.2344 21.3281 61.25 19.9688 61.25 18.5938C61.25 18.3125 61.25 17.8594 61.25 17.2344C61.25 16.5781 61.2344 15.9062 61.2031 15.2188C61.1719 14.5312 61.1094 13.9062 61.0156 13.3438C60.9531 12.75 60.8594 12.3594 60.7344 12.1719H68.9844ZM84.3125 18.0781C84.25 19.6719 84.1875 21.2812 84.125 22.9062C84.0625 24.5 84.0312 26.0938 84.0312 27.6875C84.0312 28.2188 84.1406 28.6719 84.3594 29.0469C84.5781 29.4219 84.8594 29.7344 85.2031 29.9844C85.5781 30.2031 85.9844 30.3594 86.4219 30.4531C86.8906 30.5469 87.3594 30.5938 87.8281 30.5938C88.4219 30.5938 89 30.5469 89.5625 30.4531C90.1562 30.3594 90.7344 30.2344 91.2969 30.0781L90.5469 35.0938C88.7344 35.0938 87.0312 35.0469 85.4375 34.9531C83.8438 34.8281 82.4531 34.4844 81.2656 33.9219C80.0781 33.3594 79.1406 32.4688 78.4531 31.25C77.7656 30 77.4219 28.25 77.4219 26C77.4219 24.6875 77.4531 23.375 77.5156 22.0625C77.6094 20.7188 77.7188 19.3906 77.8438 18.0781L70.9062 18.125L71.2344 13.5312C72.3594 13.625 73.5 13.6875 74.6562 13.7188C75.8125 13.7188 76.9688 13.7188 78.125 13.7188C78.1875 12.8125 78.2344 11.9375 78.2656 11.0938C78.2969 10.2188 78.3125 9.32812 78.3125 8.42188C78.3125 8.23438 78.3125 7.85938 78.3125 7.29688C78.3125 6.73438 78.2812 6.15625 78.2188 5.5625C78.1562 4.9375 78.0625 4.375 77.9375 3.875C77.8125 3.375 77.6406 3.07812 77.4219 2.98438L86.0469 3.125C85.9219 3.125 85.8281 3.21875 85.7656 3.40625C85.7031 3.59375 85.6406 3.73438 85.5781 3.82812C85.3906 4.42188 85.2344 5.14062 85.1094 5.98438C85.0156 6.82812 84.9219 7.71875 84.8281 8.65625C84.7656 9.5625 84.7031 10.4531 84.6406 11.3281C84.6094 12.1719 84.5781 12.9219 84.5469 13.5781C85.6094 13.5156 86.6875 13.4688 87.7812 13.4375C88.875 13.375 89.9531 13.2188 91.0156 12.9688V18.0312L84.3125 18.0781ZM102.312 17.1875C103.062 16.5625 103.922 15.9688 104.891 15.4062C105.891 14.8438 106.922 14.3594 107.984 13.9531C109.078 13.5156 110.172 13.1719 111.266 12.9219C112.391 12.6719 113.438 12.5469 114.406 12.5469V16.5781C113.406 16.5781 112.297 16.7969 111.078 17.2344C109.859 17.6719 108.656 18.2344 107.469 18.9219C106.312 19.6094 105.266 20.3906 104.328 21.2656C103.391 22.1406 102.703 23.0312 102.266 23.9375C102.266 24.1562 102.266 24.5625 102.266 25.1562C102.297 25.75 102.312 26.4375 102.312 27.2188C102.344 28 102.375 28.8281 102.406 29.7031C102.438 30.5469 102.484 31.3438 102.547 32.0938C102.609 32.8438 102.672 33.4844 102.734 34.0156C102.797 34.5469 102.875 34.875 102.969 35H95.375C95.5 34.9375 95.6094 34.6094 95.7031 34.0156C95.7969 33.3906 95.8594 32.6406 95.8906 31.7656C95.9531 30.8906 96 29.9531 96.0312 28.9531C96.0938 27.9219 96.125 26.9375 96.125 26C96.1562 25.0625 96.1719 24.25 96.1719 23.5625C96.1719 22.875 96.1719 22.4219 96.1719 22.2031C96.1719 21.9219 96.1719 21.3281 96.1719 20.4219C96.1719 19.5156 96.1562 18.5625 96.125 17.5625C96.0938 16.5625 96.0469 15.6406 95.9844 14.7969C95.9219 13.9219 95.8281 13.3906 95.7031 13.2031H102.641C102.578 13.3906 102.531 13.6719 102.5 14.0469C102.469 14.3906 102.438 14.7656 102.406 15.1719C102.375 15.5781 102.344 15.9688 102.312 16.3438C102.312 16.7188 102.312 17 102.312 17.1875ZM116.844 13.0625L125.094 13.1094C124.938 13.1406 124.812 13.2812 124.719 13.5312C124.656 13.75 124.594 13.9219 124.531 14.0469C124.312 14.8281 124.141 15.7812 124.016 16.9062C123.922 18 123.844 19.1562 123.781 20.375C123.75 21.5625 123.719 22.7188 123.688 23.8438C123.688 24.9688 123.688 25.9531 123.688 26.7969C123.688 27.0781 123.688 27.6562 123.688 28.5312C123.688 29.375 123.703 30.2812 123.734 31.25C123.797 32.2188 123.875 33.1094 123.969 33.9219C124.062 34.7031 124.203 35.1875 124.391 35.375H116.094C116.25 35.1562 116.406 34.6406 116.562 33.8281C116.719 33.0156 116.844 32.0469 116.938 30.9219C117.062 29.7969 117.172 28.5938 117.266 27.3125C117.359 26 117.438 24.7656 117.5 23.6094C117.594 22.4219 117.656 21.375 117.688 20.4688C117.719 19.5312 117.734 18.8906 117.734 18.5469C117.734 18.3594 117.734 17.9844 117.734 17.4219C117.734 16.8594 117.703 16.2812 117.641 15.6875C117.578 15.0625 117.484 14.5 117.359 14C117.234 13.4688 117.062 13.1562 116.844 13.0625ZM120.922 1.71875C121.328 1.71875 121.781 1.78125 122.281 1.90625C122.781 2.03125 123.234 2.21875 123.641 2.46875C124.078 2.6875 124.438 3 124.719 3.40625C125 3.78125 125.141 4.21875 125.141 4.71875C125.141 5.21875 125 5.65625 124.719 6.03125C124.438 6.40625 124.078 6.71875 123.641 6.96875C123.234 7.1875 122.781 7.35938 122.281 7.48438C121.781 7.60938 121.328 7.67188 120.922 7.67188C120.484 7.67188 120.016 7.60938 119.516 7.48438C119.047 7.35938 118.594 7.1875 118.156 6.96875C117.75 6.71875 117.406 6.40625 117.125 6.03125C116.844 5.65625 116.703 5.21875 116.703 4.71875C116.703 4.21875 116.844 3.78125 117.125 3.40625C117.406 3 117.75 2.6875 118.156 2.46875C118.594 2.21875 119.047 2.03125 119.516 1.90625C120.016 1.78125 120.484 1.71875 120.922 1.71875ZM161.094 5.28125C160.969 5.21875 160.547 5.17188 159.828 5.14062C159.141 5.10938 158.297 5.09375 157.297 5.09375C156.328 5.0625 155.266 5.04688 154.109 5.04688C152.984 5.01562 151.906 5 150.875 5C149.875 5 148.984 5 148.203 5C147.453 5 146.953 5 146.703 5C146.453 7.34375 146.312 9.6875 146.281 12.0312C146.281 14.375 146.281 16.7188 146.281 19.0625C146.281 20.5625 146.266 22.0469 146.234 23.5156C146.203 24.9844 146.188 26.4688 146.188 27.9688C146.188 28.2188 146.188 28.7031 146.188 29.4219C146.188 30.1094 146.203 30.8438 146.234 31.625C146.266 32.4062 146.328 33.125 146.422 33.7812C146.547 34.4375 146.703 34.8438 146.891 35H138.688C138.906 34.8125 139.062 34.2188 139.156 33.2188C139.281 32.1875 139.375 30.9531 139.438 29.5156C139.531 28.0781 139.578 26.5156 139.578 24.8281C139.609 23.1406 139.625 21.5312 139.625 20C139.625 18.4688 139.609 17.125 139.578 15.9688C139.578 14.7812 139.578 13.9531 139.578 13.4844C139.578 12.0781 139.562 10.6719 139.531 9.26562C139.531 7.85938 139.484 6.45312 139.391 5.04688C137.359 5.04688 135.344 5.0625 133.344 5.09375C131.344 5.09375 129.328 5.10938 127.297 5.14062C126.984 5.14062 126.594 5.15625 126.125 5.1875C125.625 5.1875 125.109 5.1875 124.578 5.1875C124.047 5.1875 123.547 5.20312 123.078 5.23438C122.578 5.26562 122.188 5.3125 121.906 5.375L121.766 0.5L161.141 0.265625L161.094 5.28125ZM164.703 17.1875C165.453 16.5625 166.312 15.9688 167.281 15.4062C168.281 14.8438 169.312 14.3594 170.375 13.9531C171.469 13.5156 172.562 13.1719 173.656 12.9219C174.781 12.6719 175.828 12.5469 176.797 12.5469V16.5781C175.797 16.5781 174.688 16.7969 173.469 17.2344C172.25 17.6719 171.047 18.2344 169.859 18.9219C168.703 19.6094 167.656 20.3906 166.719 21.2656C165.781 22.1406 165.094 23.0312 164.656 23.9375C164.656 24.1562 164.656 24.5625 164.656 25.1562C164.688 25.75 164.703 26.4375 164.703 27.2188C164.734 28 164.766 28.8281 164.797 29.7031C164.828 30.5469 164.875 31.3438 164.938 32.0938C165 32.8438 165.062 33.4844 165.125 34.0156C165.188 34.5469 165.266 34.875 165.359 35H157.766C157.891 34.9375 158 34.6094 158.094 34.0156C158.188 33.3906 158.25 32.6406 158.281 31.7656C158.344 30.8906 158.391 29.9531 158.422 28.9531C158.484 27.9219 158.516 26.9375 158.516 26C158.547 25.0625 158.562 24.25 158.562 23.5625C158.562 22.875 158.562 22.4219 158.562 22.2031C158.562 21.9219 158.562 21.3281 158.562 20.4219C158.562 19.5156 158.547 18.5625 158.516 17.5625C158.484 16.5625 158.438 15.6406 158.375 14.7969C158.312 13.9219 158.219 13.3906 158.094 13.2031H165.031C164.969 13.3906 164.922 13.6719 164.891 14.0469C164.859 14.3906 164.828 14.7656 164.797 15.1719C164.766 15.5781 164.734 15.9688 164.703 16.3438C164.703 16.7188 164.703 17 164.703 17.1875ZM195.688 35.5625C196.219 35.4062 196.547 35.0625 196.672 34.5312C196.797 33.9688 196.875 33.4688 196.906 33.0312C195.5 33.4688 194.078 33.7969 192.641 34.0156C191.203 34.2344 189.766 34.3438 188.328 34.3438C187.391 34.3438 186.266 34.2656 184.953 34.1094C183.672 33.9531 182.438 33.6562 181.25 33.2188C180.094 32.7812 179.094 32.1719 178.25 31.3906C177.438 30.6094 177.031 29.5781 177.031 28.2969C177.031 27.2031 177.422 26.2656 178.203 25.4844C179.016 24.7031 180.047 24.0625 181.297 23.5625C182.547 23.0312 183.953 22.625 185.516 22.3438C187.078 22.0625 188.609 21.8438 190.109 21.6875C191.609 21.5312 193.016 21.4375 194.328 21.4062C195.641 21.375 196.672 21.3438 197.422 21.3125C197.422 20.875 197.422 20.4531 197.422 20.0469C197.453 19.6406 197.469 19.2188 197.469 18.7812C197.469 18 197.328 17.3281 197.047 16.7656C196.766 16.1719 196.375 15.6875 195.875 15.3125C195.406 14.9375 194.844 14.6719 194.188 14.5156C193.531 14.3281 192.844 14.2344 192.125 14.2344C191.438 14.2344 190.688 14.3281 189.875 14.5156C189.094 14.7031 188.344 14.9844 187.625 15.3594C186.906 15.7344 186.281 16.2188 185.75 16.8125C185.219 17.375 184.891 18.0312 184.766 18.7812L178.859 17.9844C179.422 16.5469 180.203 15.3281 181.203 14.3281C182.203 13.3281 183.328 12.5156 184.578 11.8906C185.859 11.2656 187.219 10.8125 188.656 10.5312C190.094 10.2188 191.531 10.0625 192.969 10.0625C194.344 10.0625 195.672 10.2344 196.953 10.5781C198.266 10.9219 199.422 11.4531 200.422 12.1719C201.453 12.8594 202.266 13.75 202.859 14.8438C203.484 15.9375 203.797 17.2344 203.797 18.7344C203.797 20.3281 203.766 21.9219 203.703 23.5156C203.672 25.0781 203.656 26.6562 203.656 28.25C203.656 28.5312 203.656 29.0469 203.656 29.7969C203.656 30.5156 203.672 31.2812 203.703 32.0938C203.766 32.875 203.844 33.6094 203.938 34.2969C204.031 34.9531 204.172 35.375 204.359 35.5625H195.688ZM183.406 28.2969C183.406 28.7656 183.656 29.125 184.156 29.375C184.656 29.625 185.234 29.8281 185.891 29.9844C186.578 30.1094 187.25 30.1875 187.906 30.2188C188.562 30.25 189.031 30.2656 189.312 30.2656C190.625 30.2656 191.953 30.1719 193.297 29.9844C194.641 29.7969 195.938 29.5 197.188 29.0938C197.219 28.5312 197.234 27.9688 197.234 27.4062C197.266 26.8438 197.281 26.2969 197.281 25.7656L196.062 25.7188C195.781 25.7188 195.266 25.7344 194.516 25.7656C193.797 25.7656 192.969 25.7969 192.031 25.8594C191.094 25.8906 190.109 25.9688 189.078 26.0938C188.078 26.1875 187.156 26.3281 186.312 26.5156C185.469 26.7031 184.766 26.9531 184.203 27.2656C183.672 27.5469 183.406 27.8906 183.406 28.2969ZM226.953 21.7344C227.359 21.2969 227.766 20.7812 228.172 20.1875C228.578 19.5938 228.781 19 228.781 18.4062C228.781 17.8438 228.578 17.3906 228.172 17.0469C227.766 16.6719 227.281 16.3906 226.719 16.2031C226.156 16.0156 225.562 15.8906 224.938 15.8281C224.344 15.7344 223.844 15.6875 223.438 15.6875C222.156 15.6875 220.953 15.9219 219.828 16.3906C218.703 16.8281 217.719 17.4531 216.875 18.2656C216.031 19.0469 215.359 19.9844 214.859 21.0781C214.391 22.1719 214.156 23.375 214.156 24.6875C214.156 25.9062 214.406 26.875 214.906 27.5938C215.438 28.3125 216.094 28.8594 216.875 29.2344C217.688 29.5781 218.594 29.7969 219.594 29.8906C220.594 29.9844 221.594 30.0312 222.594 30.0312C224.125 30.0312 225.719 29.9062 227.375 29.6562C229.031 29.4062 230.594 29.0625 232.062 28.625L233.328 32.7969C231.828 33.3594 230.156 33.7812 228.312 34.0625C226.469 34.3125 224.734 34.4375 223.109 34.4375C222.141 34.4375 221.078 34.3906 219.922 34.2969C218.797 34.1719 217.656 33.9844 216.5 33.7344C215.344 33.4531 214.219 33.0938 213.125 32.6562C212.062 32.2188 211.109 31.6562 210.266 30.9688C209.422 30.2812 208.75 29.4688 208.25 28.5312C207.75 27.5625 207.5 26.4531 207.5 25.2031C207.5 22.9219 208.047 20.9219 209.141 19.2031C210.266 17.4531 211.688 16 213.406 14.8438C215.156 13.6562 217.078 12.7656 219.172 12.1719C221.297 11.5781 223.375 11.2812 225.406 11.2812C226.531 11.2812 227.656 11.375 228.781 11.5625C229.906 11.7188 230.922 12.0312 231.828 12.5C232.734 12.9688 233.469 13.625 234.031 14.4688C234.594 15.3125 234.875 16.4062 234.875 17.75C234.875 18.4375 234.812 19.1094 234.688 19.7656C234.562 20.4219 234.406 21.0781 234.219 21.7344H226.953ZM252.359 23.0938C254.047 24.5625 255.734 26.0156 257.422 27.4531C259.141 28.8594 260.859 30.2812 262.578 31.7188C263.328 32.3438 264.094 33 264.875 33.6875C265.656 34.375 266.484 34.9375 267.359 35.375H258.875C258.781 35.2188 258.484 34.9219 257.984 34.4844C257.484 34.0156 256.875 33.5 256.156 32.9375C255.469 32.375 254.719 31.7656 253.906 31.1094C253.094 30.4531 252.312 29.8281 251.562 29.2344C250.812 28.6406 250.125 28.125 249.5 27.6875C248.906 27.2188 248.469 26.875 248.188 26.6562L246.5 28.1094C246.5 28.4531 246.5 28.9844 246.5 29.7031C246.5 30.3906 246.516 31.1094 246.547 31.8594C246.578 32.6094 246.625 33.3125 246.688 33.9688C246.781 34.625 246.891 35.0625 247.016 35.2812H238.719C238.844 35.0625 238.969 34.5625 239.094 33.7812C239.219 33 239.328 32.0312 239.422 30.875C239.516 29.7188 239.594 28.4375 239.656 27.0312C239.75 25.5938 239.828 24.125 239.891 22.625C239.984 21.125 240.047 19.6406 240.078 18.1719C240.141 16.6719 240.188 15.2969 240.219 14.0469C240.281 12.7656 240.312 11.6406 240.312 10.6719C240.344 9.70312 240.359 8.98438 240.359 8.51562C240.359 8.20312 240.359 7.65625 240.359 6.875C240.359 6.0625 240.328 5.23438 240.266 4.39062C240.203 3.51562 240.109 2.71875 239.984 2C239.859 1.28125 239.688 0.84375 239.469 0.6875L248.422 0.734375C248.172 0.890625 247.953 1.4375 247.766 2.375C247.578 3.3125 247.406 4.46875 247.25 5.84375C247.125 7.1875 247.016 8.67188 246.922 10.2969C246.828 11.8906 246.75 13.4219 246.688 14.8906C246.656 16.3594 246.625 17.6719 246.594 18.8281C246.562 19.9844 246.547 20.7812 246.547 21.2188C248.391 19.6875 250.25 18.1719 252.125 16.6719C254.031 15.1719 255.859 13.5938 257.609 11.9375H265.812C265 12.375 264.234 12.9219 263.516 13.5781C262.828 14.2344 262.125 14.8438 261.406 15.4062C259.875 16.7188 258.359 18 256.859 19.25C255.359 20.5 253.859 21.7812 252.359 23.0938Z" fill="#6AD459"/>
</svg>
